<svg width="30" height="29" viewBox="0 0 30 29" fill="none" xmlns="http://www.w3.org/2000/svg">
<path d="M29.4138 2.44922C29.2344 3.76172 29.1269 5.08594 28.8639 6.375C27.9673 10.9453 25.9111 14.8828 22.1096 17.8359C21.9423 17.9648 21.763 18.1641 21.7391 18.3516C21.4761 20.5664 20.2209 22.2422 18.7026 23.7656C16.8856 25.582 14.7577 26.9883 12.4983 28.2188C12.068 28.4531 11.6496 28.582 11.2909 28.1367C10.9443 27.7148 11.1953 27.3516 11.4942 27.0117C12.8331 25.4883 13.6818 23.7305 14.0524 21.75C14.16 21.1641 14.1002 20.7891 13.4666 20.4258C11.4464 19.2422 9.79665 17.6133 8.58925 15.6328C8.24258 15.0586 7.88395 15 7.346 15.0938C5.39744 15.4336 3.6521 16.207 2.12194 17.4375C2.0024 17.5312 1.89481 17.6953 1.75136 17.7188C1.42859 17.7891 0.950414 17.9297 0.806962 17.7773C0.603737 17.5781 0.484197 17.0508 0.615695 16.8047C1.10582 15.8672 1.66768 14.9531 2.2654 14.0742C3.53256 12.2227 4.96708 10.5234 6.80805 9.19922C7.94372 8.37891 9.17502 7.76953 10.6095 7.57031C10.8486 7.53516 11.1116 7.37109 11.267 7.18359C14.7338 2.94141 19.396 0.960938 24.7635 0.292969C25.4927 0.199219 26.2339 0.128906 26.9751 0.0351562C27.788 0.0351562 28.6009 0.0351562 29.4138 0.0351562C29.4138 0.855469 29.4138 1.65234 29.4138 2.44922ZM28.0031 1.54688C24.9309 1.65234 22.1336 2.05078 19.4797 3.11719C14.5545 5.08594 11.1714 8.44922 9.72492 13.5469C9.56951 14.0742 9.62928 14.543 9.95205 14.9883C11.0877 16.6406 12.4864 18.0469 14.1959 19.1133C14.5784 19.3477 15.1881 19.4297 15.6543 19.3477C17.304 19.0312 18.8102 18.3047 20.1969 17.3789C24.2734 14.6953 26.461 10.8164 27.3815 6.19922C27.6565 4.69922 27.788 3.16406 28.0031 1.54688ZM14.7338 25.0781C16.8975 23.7891 19.8024 20.7891 19.8503 19.4766C18.5831 19.9102 17.2801 20.3555 15.9771 20.8242C15.8336 20.8828 15.6662 21.0703 15.6304 21.2227C15.3196 22.5234 15.0207 23.8242 14.7338 25.0781ZM9.64124 9.32812C7.07105 10.3828 5.36158 12.3984 3.84337 14.4609C5.15835 14.168 6.5092 13.8867 7.84809 13.5703C7.99154 13.5352 8.17085 13.3945 8.21867 13.2656C8.7088 11.9766 9.16307 10.6758 9.64124 9.32812Z" fill="white"/>
<path d="M11.8522 28.4883C11.637 28.4883 11.4338 28.4063 11.2425 28.1719C10.8719 27.7031 11.1469 27.3164 11.4458 26.9766C12.7607 25.4766 13.6214 23.707 13.992 21.75C14.0996 21.1875 14.0399 20.8359 13.4421 20.4844C11.4099 19.3008 9.77215 17.6719 8.5528 15.668C8.21808 15.1172 7.89531 15.0703 7.36932 15.1641C5.43271 15.5039 3.67542 16.2891 2.16917 17.4961C2.13331 17.5313 2.09744 17.5664 2.06158 17.6016C1.9779 17.6836 1.89422 17.7773 1.77468 17.8008C1.72686 17.8125 1.66709 17.8242 1.60732 17.8359C1.28455 17.9063 0.913962 17.9883 0.77051 17.8477C0.567286 17.6367 0.423832 17.0859 0.567284 16.8047C1.02155 15.9258 1.5595 15.0352 2.22894 14.0625C3.71128 11.9063 5.15776 10.3477 6.78355 9.17578C8.08658 8.23828 9.30592 7.71094 10.6089 7.53516C10.8122 7.51172 11.0752 7.34766 11.2306 7.17188C14.4463 3.24609 18.8694 0.984375 24.7629 0.257813C25.265 0.199219 25.779 0.140625 26.2692 0.0820313C26.4963 0.0585938 26.7354 0.0351563 26.9625 0H29.4729V2.46094C29.4132 2.87109 29.3653 3.29297 29.3175 3.70313C29.2099 4.59375 29.1023 5.50781 28.923 6.39844C27.9547 11.3438 25.7312 15.1055 22.1569 17.8945C22.0015 18.0117 21.8221 18.2109 21.8102 18.375C21.5233 20.7656 20.1007 22.4766 18.7618 23.8242C17.148 25.4414 15.1755 26.8594 12.5456 28.2891C12.3184 28.3828 12.0793 28.4883 11.8522 28.4883ZM7.71599 15.0117C8.08658 15.0117 8.37348 15.1523 8.66039 15.6094C9.86778 17.6016 11.5055 19.207 13.5139 20.3789C14.1714 20.7656 14.2431 21.1641 14.1235 21.7617C13.7529 23.7539 12.8803 25.5234 11.5414 27.0469C11.2545 27.375 11.0274 27.6914 11.3382 28.0898C11.6609 28.4883 12.0196 28.4063 12.4738 28.1602C15.0918 26.7422 17.0524 25.3359 18.6662 23.7188C20.0051 22.3828 21.4037 20.6953 21.6906 18.3398C21.7265 18.0938 22.0015 17.8477 22.0851 17.7891C25.6475 15.0234 27.8471 11.2852 28.8154 6.36328C28.9948 5.47266 29.1024 4.55859 29.2099 3.67969C29.2578 3.26953 29.3056 2.85938 29.3653 2.44922V0.117188H26.9864C26.7593 0.140625 26.5322 0.164063 26.2931 0.199219C25.8029 0.257813 25.2889 0.316406 24.7868 0.375C18.9292 1.10156 14.518 3.35156 11.3262 7.24219C11.1588 7.45313 10.8719 7.61719 10.6329 7.65235C9.34179 7.82813 8.14635 8.33203 6.85528 9.26953C5.22949 10.4414 3.79496 11.9883 2.32458 14.1328C1.66709 15.0938 1.12914 15.9844 0.674876 16.8633C0.567287 17.0742 0.662922 17.5781 0.854192 17.7656C0.949827 17.8594 1.30845 17.7891 1.58341 17.7305C1.64318 17.7188 1.70295 17.707 1.75077 17.6953C1.8225 17.6836 1.89422 17.6133 1.9779 17.5313C2.01376 17.4961 2.04963 17.4492 2.09744 17.4258C3.6276 16.1953 5.38489 15.4102 7.34541 15.0703C7.47691 15.0234 7.59645 15.0117 7.71599 15.0117ZM14.6495 25.207L14.6854 25.0664C14.7571 24.7734 14.8169 24.4922 14.8886 24.1992C15.1157 23.2266 15.3429 22.2188 15.582 21.2227C15.6298 21.0352 15.7971 20.8359 15.9645 20.7773C16.9687 20.4141 17.9848 20.0625 18.965 19.7227C19.252 19.6172 19.5508 19.5234 19.8377 19.418L19.9214 19.3945V19.4766C19.8616 20.8125 16.9209 23.8477 14.7691 25.1367L14.6495 25.207ZM19.7899 19.5586C19.5269 19.6523 19.2639 19.7344 19.0009 19.8281C18.0207 20.168 17.0045 20.5195 16.0004 20.8828C15.8808 20.9297 15.7254 21.1055 15.6896 21.2461C15.4505 22.2422 15.2114 23.25 14.9962 24.2227C14.9364 24.4688 14.8886 24.7148 14.8288 24.9609C16.8969 23.6719 19.6225 20.8828 19.7899 19.5586ZM15.2353 19.4531C14.8408 19.4531 14.4224 19.3594 14.1474 19.1836C12.5216 18.1758 11.0871 16.793 9.87973 15.0469C9.56892 14.5898 9.48524 14.1094 9.6526 13.5469C11.0393 8.63672 14.3387 5.12109 19.4432 3.07031C21.8461 2.10938 24.5716 1.60547 27.9906 1.5H28.0623L28.0504 1.57031C27.9786 2.08594 27.9189 2.58984 27.871 3.08203C27.7396 4.17188 27.62 5.20313 27.4168 6.22266C26.4126 11.2383 24.0576 14.9063 20.2083 17.4492C18.6303 18.4922 17.136 19.1367 15.6417 19.418C15.5102 19.4414 15.3787 19.4531 15.2353 19.4531ZM27.9308 1.60547C24.5477 1.72266 21.87 2.21484 19.491 3.17578C14.4224 5.20313 11.1469 8.70703 9.77214 13.5703C9.62869 14.0977 9.68847 14.543 9.98732 14.9648C11.1828 16.6992 12.6053 18.082 14.2192 19.0781C14.5778 19.3008 15.1516 19.3945 15.6298 19.3008C17.1121 19.0195 18.5945 18.375 20.1485 17.3438C23.9739 14.8242 26.317 11.1797 27.3092 6.19922C27.5124 5.17969 27.632 4.14844 27.7635 3.05859C27.8113 2.58984 27.8591 2.09766 27.9308 1.60547ZM3.71128 14.5547L3.80692 14.4258C5.21753 12.5156 6.93896 10.3828 9.62869 9.28125L9.74824 9.23438L9.38961 10.2539C9.01902 11.3086 8.66039 12.293 8.2898 13.3008C8.23003 13.4414 8.05072 13.6055 7.88336 13.6406C6.84333 13.8867 5.77939 14.1094 4.76327 14.332L3.71128 14.5547ZM9.54501 9.43359C7.01069 10.5234 5.34903 12.5273 3.98623 14.3672L4.71545 14.2031C5.73157 13.9805 6.79551 13.7461 7.83554 13.5117C7.96704 13.4766 8.12244 13.3477 8.1583 13.2422C8.52889 12.2344 8.88752 11.25 9.25811 10.1953L9.54501 9.43359Z" fill="white"/>
</svg>
