<svg width="36" height="30" viewBox="0 0 36 30" fill="none" xmlns="http://www.w3.org/2000/svg">
<path d="M35.762 16.0539C35.5605 16.4838 35.4182 16.9485 35.1456 17.332C34.6478 18.0291 33.9011 18.2963 33.0596 18.308C32.5855 18.3196 32.1114 18.308 31.6373 18.308C31.341 18.9819 31.0802 19.6674 30.7365 20.3064C29.2194 23.2576 26.9318 25.4187 23.862 26.7898C23.3405 27.0221 22.7953 27.1848 22.2738 27.4056C22.1671 27.452 22.0249 27.5682 22.0131 27.6612C21.8353 28.7882 20.8634 29.8688 19.287 29.9036C18.2677 29.9269 17.2365 29.9269 16.2172 29.8571C14.8541 29.7642 13.8111 28.6372 13.7637 27.2778C13.7163 25.9764 14.7001 24.7448 16.0394 24.5705C16.7861 24.4776 17.5447 24.5125 18.3032 24.5125C18.7773 24.5125 19.2633 24.4892 19.7255 24.5589C20.5552 24.6635 21.1715 25.1399 21.6456 25.8254C22.6649 25.5233 23.6369 25.105 24.5258 24.5473C27.726 22.5605 29.7172 19.7371 30.3335 16.0771C30.9735 12.2778 29.9661 8.8618 27.4059 5.92222C26.0785 4.40014 24.4428 3.27311 22.5346 2.5295C22.3212 2.44817 22.2146 2.48302 22.0723 2.64569C19.8678 5.16699 17.1061 6.78202 13.7637 7.36296C12.6851 7.54886 11.571 7.54886 10.4687 7.59534C9.91165 7.61858 9.53237 7.21191 9.54423 6.73554C9.56793 6.23593 9.94721 5.89898 10.5161 5.92222C11.974 5.96869 13.3963 5.82927 14.783 5.41098C16.9639 4.76033 18.8366 3.62168 20.4367 1.9137C20.0337 1.84398 19.69 1.77427 19.3462 1.72779C16.2409 1.40247 13.3726 2.06474 10.8006 3.79596C8.15748 5.63174 6.41517 8.09495 5.69216 11.1972C5.46697 12.1732 5.39585 13.2073 5.33659 14.2065C5.27733 15.229 5.32474 16.263 5.32474 17.2855C5.32474 17.9245 4.94546 18.308 4.29357 18.308C3.66539 18.308 3.0372 18.3428 2.40902 18.2731C1.02228 18.1221 0.0622256 17.088 0.0266681 15.7169C-0.00888938 14.404 -0.00888938 13.0911 0.0266681 11.7781C0.0622256 10.6627 0.666703 9.87264 1.73343 9.45436C2.20753 9.26846 2.69348 9.44274 2.88312 9.86102C3.07276 10.2677 2.90683 10.7324 2.44458 10.9416C1.88751 11.1856 1.69787 11.5922 1.70972 12.1732C1.73343 13.2654 1.70972 14.3575 1.72158 15.4613C1.72158 16.2863 2.07715 16.6232 2.90683 16.6232C3.13202 16.6232 3.34537 16.6232 3.61798 16.6232C3.61798 16.4606 3.61798 16.3327 3.61798 16.1933C3.66539 14.7758 3.62983 13.3583 3.79576 11.964C4.05652 9.74483 4.95731 7.73477 6.27294 5.9106C7.81376 3.78434 9.80498 2.20417 12.2347 1.15847C14.6171 0.136006 17.118 -0.212561 19.7018 0.124387C22.3212 0.461335 24.6799 1.4257 26.7422 3.02911C29.5512 5.21346 31.3054 8.03686 31.981 11.4877C32.2892 13.0097 32.301 14.5434 32.0758 16.0771C32.0521 16.2398 32.0403 16.4141 32.0166 16.6C32.4788 16.6 32.9174 16.6348 33.3559 16.5884C33.7233 16.5419 33.9248 16.2514 33.9959 15.9028C34.0315 15.7402 34.0433 15.5659 34.0433 15.3916C34.0433 14.3111 34.0315 13.2189 34.0552 12.1383C34.067 11.5806 33.8893 11.174 33.3322 10.9416C32.8937 10.7557 32.7396 10.2677 32.9411 9.8494C33.1426 9.43112 33.5811 9.26846 34.0552 9.44274C34.873 9.74483 35.3945 10.3142 35.6553 11.1391C35.6908 11.2437 35.7264 11.3482 35.762 11.4644C35.762 12.9981 35.762 14.5318 35.762 16.0539ZM17.9121 28.2421C18.3388 28.2421 18.7773 28.2421 19.204 28.2421C19.8678 28.2305 20.3181 27.8587 20.3419 27.2894C20.3656 26.7084 19.9389 26.232 19.287 26.2088C18.3625 26.174 17.4261 26.1856 16.5016 26.2088C15.8853 26.232 15.4705 26.6968 15.4823 27.2545C15.506 27.8122 15.9446 28.2305 16.5609 28.2421C16.9994 28.2537 17.4617 28.2421 17.9121 28.2421Z" fill="white"/>
<path d="M22.3808 9.4776C23.649 9.52408 24.6327 10.0469 25.332 11.081C25.6046 11.4993 25.5335 11.9989 25.1542 12.2661C24.7631 12.545 24.2772 12.4753 23.9571 12.057C23.6016 11.5922 23.1986 11.2321 22.5822 11.174C21.9422 11.1159 21.4207 11.325 21.0177 11.813C20.9466 11.8943 20.8873 11.9757 20.8281 12.057C20.5199 12.4404 20.034 12.5218 19.6547 12.2661C19.2754 12.0105 19.1687 11.5225 19.4295 11.1159C20.1169 10.0702 21.1007 9.53569 22.3808 9.4776Z" fill="white"/>
<path d="M10.3149 11.4761C10.3386 11.4063 10.3861 11.2437 10.469 11.1043C11.8084 8.96638 14.9848 8.95476 16.3479 11.0926C16.6205 11.5109 16.5375 12.0221 16.1701 12.2778C15.7789 12.545 15.2811 12.4753 14.973 12.057C14.5107 11.418 13.93 11.0694 13.1121 11.1972C12.7091 11.2553 12.3773 11.4528 12.1047 11.7549C12.0098 11.8711 11.9269 11.9873 11.8321 12.1035C11.5832 12.3939 11.2039 12.4985 10.8602 12.3707C10.5164 12.2429 10.3268 11.9641 10.3149 11.4761Z" fill="white"/>
<path d="M17.948 21.7007C16.6442 21.6658 15.6605 21.1313 14.973 20.0973C14.7004 19.679 14.7834 19.1794 15.1508 18.9121C15.5301 18.6449 16.0516 18.7262 16.3479 19.1329C16.6561 19.5512 17.0117 19.8881 17.5569 19.9811C18.2799 20.1089 18.8606 19.8881 19.311 19.3304C19.3703 19.2491 19.4296 19.1678 19.5007 19.0864C19.797 18.7379 20.2948 18.6681 20.6622 18.9121C21.0297 19.1561 21.1363 19.6441 20.8874 20.0392C20.2 21.0965 19.2044 21.6542 17.948 21.7007Z" fill="white"/>
</svg>
