<svg width="34" height="30" viewBox="0 0 34 30" fill="none" xmlns="http://www.w3.org/2000/svg">
<path d="M12.3859 29.8606C12.1844 29.8606 11.9947 29.8606 11.7932 29.8606C11.6984 29.7792 11.6036 29.6979 11.4969 29.6282C8.92493 27.9899 6.3648 26.3284 3.7691 24.7134C3.02239 24.2486 2.67867 23.7374 2.67867 22.8311C2.71423 18.5205 2.65496 14.1983 2.67867 9.88768C2.69052 8.71418 2.52459 7.63362 1.99123 6.55306C1.26822 5.07746 0.66374 3.53215 0 2.02169C0 1.89388 0 1.76607 0 1.63827C0.509657 1.06894 0.592628 1.03408 1.29192 1.35941C3.57946 2.42835 5.84328 3.50891 8.14267 4.55461C8.94864 4.92641 9.67164 5.32146 9.9324 6.23935C9.96795 6.35554 10.2287 6.5182 10.3591 6.49497C13.097 6.19287 15.8468 5.87916 18.5847 5.56545C18.9521 5.51898 19.201 5.35631 19.3907 5.0426C20.0544 3.96205 20.73 2.88149 21.4293 1.81255C21.8323 1.19675 22.2708 0.604183 22.6975 0C22.8635 0 23.0294 0 23.1835 0C23.4442 0.127808 23.6931 0.267235 23.9539 0.383424C26.8459 1.62665 29.7379 2.86987 32.6299 4.12471C32.8433 4.21766 33.0092 4.39194 33.2107 4.53137C33.2107 4.69404 33.2107 4.8567 33.2107 5.00775C33.1751 5.0426 33.1277 5.06584 33.104 5.1007C31.7884 7.20372 30.4609 9.30674 29.169 11.4214C28.9912 11.7002 28.8964 12.072 28.8964 12.3974C28.8727 15.3137 28.8845 18.2417 28.8608 21.158C28.849 23.1681 28.8134 25.1665 28.8016 27.1766C28.8016 27.653 28.6593 27.9551 28.126 27.9783C27.9956 27.9783 27.8652 28.0132 27.7348 28.0364C26.0281 28.2339 24.3332 28.4431 22.6264 28.6406C19.8766 28.9543 17.1387 29.268 14.3889 29.5933C13.7252 29.6631 13.0496 29.7676 12.3859 29.8606ZM12.8718 28.3153C17.7076 27.7692 22.5079 27.2231 27.3556 26.6654C27.3556 21.9365 27.3556 17.2424 27.3556 12.5019C22.496 13.0596 17.6839 13.6174 12.8718 14.1751C12.8718 18.9156 12.8718 23.598 12.8718 28.3153ZM11.2717 27.7924C11.2717 23.1913 11.2717 18.6832 11.2599 14.1751C11.2599 14.0124 11.0939 13.8033 10.9517 13.7103C9.05531 12.4903 7.14706 11.282 5.2388 10.0736C4.93064 9.87607 4.61062 9.69016 4.25505 9.4694C4.2432 9.65531 4.21949 9.75988 4.21949 9.86445C4.20764 14.2215 4.18393 18.5902 4.19579 22.9473C4.19579 23.1216 4.33802 23.3772 4.4921 23.4702C5.74846 24.2951 7.02853 25.1084 8.3086 25.9218C9.28051 26.5259 10.2524 27.1301 11.2717 27.7924ZM31.4328 5.1007C30.7454 4.81023 30.1053 4.53137 29.4653 4.26414C27.5334 3.45081 25.6014 2.63749 23.6694 1.81255C23.4561 1.7196 23.2902 1.6615 23.1361 1.9055C22.2945 3.23005 21.4412 4.55461 20.5404 5.94888C23.0176 7.54067 25.4355 9.0976 27.9008 10.6894C29.0979 8.79551 30.2476 6.97134 31.4328 5.1007ZM10.6317 7.94733C11.3428 9.5275 12.0184 11.0496 12.7177 12.56C12.7533 12.653 12.9903 12.6995 13.1326 12.6878C14.2823 12.5716 15.4319 12.4322 16.5935 12.3044C17.3165 12.2231 18.0395 12.1418 18.7506 12.0488C18.7506 10.3408 18.7506 8.69094 18.7506 6.99458C16.0601 7.30829 13.4052 7.622 10.6317 7.94733ZM2.21642 3.36948C2.27568 3.55538 2.28754 3.63672 2.32309 3.71805C2.8446 4.89156 3.36611 6.06507 3.91132 7.22696C4.018 7.44772 4.19579 7.65686 4.39728 7.79628C5.28622 8.40047 6.18701 8.96979 7.09965 9.55074C8.26119 10.2827 9.42273 11.0147 10.6672 11.7932C10.6198 11.6305 10.6198 11.5724 10.5961 11.5259C9.86128 9.82959 9.12643 8.13323 8.36787 6.44849C8.29675 6.29744 8.11896 6.15802 7.96488 6.07668C7.07594 5.63517 6.17515 5.21689 5.27436 4.79861C4.2906 4.33385 3.295 3.86909 2.21642 3.36948ZM20.3033 7.5639C20.3033 9.07436 20.3033 10.457 20.3033 11.8861C22.176 11.677 24.0013 11.4562 25.8266 11.2471C25.8384 11.2006 25.8503 11.1541 25.8503 11.1077C24.0487 9.9574 22.2353 8.79551 20.3033 7.5639Z" fill="white"/>
</svg>
