<svg width="31" height="30" viewBox="0 0 31 30" fill="none" xmlns="http://www.w3.org/2000/svg">
<path d="M19.5659 0.04647C19.9808 0.15104 20.4075 0.220753 20.7986 0.383418C23.6313 1.55693 24.4373 4.99612 22.4342 7.27343C22.375 7.33152 22.3276 7.40123 22.2209 7.5058C22.3513 7.5058 22.4342 7.5058 22.5172 7.5058C24.4729 7.5058 26.4285 7.5058 28.3842 7.5058C29.6524 7.5058 30.5176 8.3656 30.5176 9.59721C30.5176 10.6661 30.5176 11.7351 30.5176 12.804C30.5176 14.1286 29.6643 14.9651 28.3131 14.9651C28.2183 14.9651 28.1116 14.9651 27.9812 14.9651C27.9812 15.0697 27.9812 15.1743 27.9812 15.2672C27.9812 19.5778 27.9812 23.8885 27.9812 28.1991C27.9812 29.2448 27.3293 29.8954 26.2626 29.8954C19.0207 29.8954 11.7789 29.8954 4.53699 29.8954C3.44656 29.8954 2.60503 29.0821 2.59318 28.0132C2.59318 23.7723 2.59318 19.543 2.59318 15.3021C2.59318 15.1975 2.59318 15.1046 2.59318 14.9651C2.39168 14.9651 2.20204 14.9651 2.0124 14.9651C0.898268 14.9651 0.0685934 14.1634 0.0567409 13.0713C0.0448884 11.8397 0.0448884 10.6197 0.0567409 9.38807C0.0567409 8.30751 0.886421 7.5058 1.9887 7.5058C4.00363 7.5058 6.01855 7.5058 8.03347 7.5058C8.12829 7.5058 8.21125 7.5058 8.35348 7.5058C8.25866 7.40123 8.19941 7.33152 8.14015 7.25019C7.02601 5.93725 6.72969 4.46165 7.33417 2.88148C7.93865 1.28969 9.15946 0.36018 10.8781 0.0813267C10.9255 0.0697078 10.9729 0.0580889 11.0203 0.0348511C11.3403 0.0348511 11.6603 0.0348511 11.9804 0.0348511C12.0159 0.04647 12.0515 0.0697078 12.0989 0.0813267C13.0115 0.209135 13.8175 0.56932 14.4812 1.19674C14.7775 1.47559 15.0264 1.78931 15.3109 2.10302C15.3346 2.06816 15.3702 2.02168 15.3939 1.97521C15.9983 1.10379 16.8162 0.511226 17.8473 0.209135C18.0844 0.139421 18.3333 0.0929456 18.5822 0.0348511C18.9259 0.04647 19.2459 0.04647 19.5659 0.04647ZM17.8592 28.6522C17.9184 28.6522 17.954 28.6638 17.9896 28.6638C20.763 28.6638 23.5365 28.6638 26.31 28.6638C26.63 28.6638 26.7248 28.5593 26.7248 28.2107C26.7248 23.8885 26.7248 19.5546 26.7248 15.2324C26.7248 15.151 26.713 15.0697 26.713 15C23.738 15 20.7986 15 17.8592 15C17.8592 19.5546 17.8592 24.086 17.8592 28.6522ZM3.8851 14.9884C3.8851 15.0697 3.8851 15.1394 3.8851 15.2091C3.8851 19.4268 3.8851 23.6328 3.8851 27.8505C3.8851 28.4663 4.09844 28.6638 4.72662 28.6638C7.32232 28.6638 9.91802 28.6638 12.5137 28.6638C12.5967 28.6638 12.6797 28.6522 12.7508 28.6522C12.7508 24.086 12.7508 19.543 12.7508 14.9884C9.7995 14.9884 6.86008 14.9884 3.8851 14.9884ZM12.7508 8.76064C12.6915 8.76064 12.6559 8.74903 12.6085 8.74903C9.08834 8.74903 5.5563 8.74903 2.03612 8.74903C1.59757 8.74903 1.34867 9.00464 1.34867 9.43454C1.34867 10.6081 1.34867 11.7699 1.34867 12.9434C1.34867 13.5012 1.57387 13.7219 2.14279 13.7219C5.58001 13.7219 9.02908 13.7219 12.4663 13.7219C12.5611 13.7219 12.6441 13.7219 12.7508 13.7219C12.7508 12.0604 12.7508 10.4338 12.7508 8.76064ZM17.8473 13.7335C17.954 13.7335 18.037 13.7335 18.1199 13.7335C21.5335 13.7335 24.9351 13.7335 28.3486 13.7335C28.965 13.7335 29.2613 13.4431 29.2613 12.8389C29.2613 11.7699 29.2613 10.701 29.2613 9.63206C29.2613 9.06274 28.9531 8.76064 28.3723 8.76064C24.9588 8.76064 21.5335 8.76064 18.1199 8.76064C18.037 8.76064 17.9422 8.76064 17.8473 8.76064C17.8473 10.4338 17.8473 12.0604 17.8473 13.7335ZM14.0545 8.76064C14.0545 15.4067 14.0545 22.0294 14.0545 28.6406C14.8961 28.6406 15.7257 28.6406 16.5554 28.6406C16.5554 22.0062 16.5554 15.3834 16.5554 8.76064C15.7139 8.76064 14.8961 8.76064 14.0545 8.76064ZM15.9628 7.49418C17.1362 7.49418 18.2977 7.58714 19.4474 7.47095C21.3675 7.28504 22.6002 5.55383 22.209 3.74128C21.8535 2.0914 20.1349 0.99922 18.4518 1.35941C17.148 1.63826 16.0339 2.77691 15.9746 3.9969C15.9272 5.14717 15.9628 6.30906 15.9628 7.49418ZM14.6472 7.45933C14.6472 6.65762 14.6472 5.83268 14.6472 5.01936C14.6472 4.64755 14.6827 4.26413 14.6235 3.90394C14.2323 1.53369 11.3877 0.476369 9.49133 1.99845C8.44831 2.84662 8.09273 3.96204 8.44831 5.24012C8.80388 6.49496 9.68096 7.30828 11.0084 7.43609C12.2055 7.55228 13.4145 7.45933 14.6472 7.45933Z" fill="white"/>
<path d="M26.274 29.9651H17.8232H4.54839C3.41055 29.9651 2.55716 29.1286 2.54531 28.0248C2.54531 24.9225 2.54531 21.8319 2.54531 18.7297V15.0349H2.41494C2.28456 15.0349 2.15419 15.0349 2.02381 15.0349C0.862269 15.0349 0.0207419 14.2099 0.00888937 13.0829C-0.00296312 11.8745 -0.00296312 10.6313 0.00888937 9.39969C0.00888937 8.29589 0.874113 7.45933 2.0001 7.45933C3.41055 7.45933 4.83285 7.45933 6.2433 7.45933H8.22266C8.17525 7.40124 8.12784 7.35476 8.09228 7.29667C6.94259 5.94888 6.66998 4.46166 7.27446 2.86987C7.87894 1.26646 9.08789 0.31371 10.8658 0.0348567C10.8895 0.0348567 10.925 0.0232378 10.9487 0.0116189C10.9606 0.0116189 10.9843 0 10.9961 0H11.008H11.9918C12.0036 0 12.0155 0.0116189 12.0273 0.0116189C12.051 0.0232378 12.0747 0.0348567 12.0866 0.0348567C13.0229 0.174283 13.8407 0.546088 14.4926 1.16189C14.6941 1.34779 14.8838 1.56855 15.0734 1.77769C15.1445 1.85902 15.2156 1.94036 15.2867 2.01007C15.2986 1.98683 15.3104 1.96359 15.3342 1.95197C15.9505 1.06894 16.792 0.464756 17.8232 0.162665C17.9891 0.116189 18.1669 0.0813323 18.3328 0.0464756C18.404 0.0348567 18.4869 0.0116189 18.558 0H18.5699H19.5536C19.684 0.0348567 19.8144 0.0697134 19.9448 0.0929512C20.2292 0.162665 20.5255 0.220759 20.7981 0.336948C22.1612 0.894655 23.1331 2.02169 23.465 3.40434C23.7968 4.7986 23.4294 6.22773 22.4575 7.33152C22.4219 7.378 22.3864 7.41286 22.339 7.47095H24.2117C25.5984 7.47095 26.9852 7.47095 28.3719 7.47095C29.6638 7.47095 30.5646 8.35399 30.5646 9.62045C30.5646 10.6894 30.5646 11.7583 30.5646 12.8273C30.5646 14.1751 29.6757 15.0465 28.3008 15.0465H28.0282V28.2223C28.0519 29.2912 27.3763 29.9651 26.274 29.9651ZM17.835 29.8489H26.2859C27.3289 29.8489 27.9452 29.2331 27.9452 28.2107V14.9187H28.3363C29.652 14.9187 30.4816 14.117 30.4816 12.8156C30.4816 11.7467 30.4816 10.6778 30.4816 9.60883C30.4816 8.41208 29.6283 7.57552 28.4075 7.57552C27.0207 7.57552 25.634 7.57552 24.2472 7.57552H22.1138L22.2916 7.378C22.339 7.31991 22.3745 7.28505 22.4101 7.23857C23.3583 6.15802 23.7139 4.77537 23.3938 3.41596C23.0738 2.06816 22.1256 0.987606 20.7981 0.429899C20.5374 0.325329 20.2411 0.255616 19.9685 0.185902C19.8381 0.151046 19.7077 0.127808 19.5774 0.0929512H18.6292C18.558 0.10457 18.4751 0.127808 18.4039 0.139427C18.238 0.174283 18.0721 0.20914 17.9062 0.255616C16.8987 0.557707 16.0809 1.13865 15.4764 1.99845C15.4527 2.03331 15.429 2.05655 15.4171 2.0914L15.346 2.18435L15.2986 2.12626C15.2156 2.03331 15.1208 1.92874 15.0378 1.83579C14.8482 1.61503 14.6704 1.41751 14.4689 1.2316C13.8289 0.639039 13.0348 0.267235 12.1221 0.139427C12.0866 0.139427 12.051 0.116189 12.0273 0.10457C12.0155 0.10457 12.0155 0.0929512 12.0036 0.0929512H11.0554C11.0436 0.0929512 11.0317 0.10457 11.0198 0.10457C10.9843 0.116189 10.9487 0.127808 10.9132 0.139427C9.18272 0.41828 7.99746 1.34779 7.40483 2.90472C6.81221 4.45004 7.08482 5.9024 8.19896 7.21534C8.24637 7.26181 8.28192 7.30829 8.32933 7.378L8.49527 7.5639H6.25515C4.8447 7.5639 3.4224 7.5639 2.01195 7.5639C0.945225 7.5639 0.139264 8.35399 0.139264 9.38807C0.127411 10.6197 0.127411 11.8513 0.139264 13.0713C0.139264 14.1286 0.945233 14.907 2.03566 14.907C2.16604 14.907 2.29641 14.907 2.42679 14.907H2.6757V18.718C2.6757 21.8203 2.6757 24.9109 2.6757 28.0132C2.6757 29.0589 3.48166 29.8373 4.56023 29.8373L17.835 29.8489ZM4.72617 28.7219C4.06243 28.7219 3.82539 28.4895 3.82539 27.8505C3.82539 24.6902 3.82539 21.5298 3.82539 18.3695V14.9419H12.8096V28.7103L12.6792 28.7219C12.6199 28.7219 12.5725 28.7335 12.5133 28.7335C9.91757 28.7103 7.32187 28.7219 4.72617 28.7219ZM3.94391 15.0465V18.3579C3.94391 21.5182 3.94391 24.6785 3.94391 27.8389C3.94391 28.4198 4.1217 28.5941 4.72617 28.5941C7.32187 28.5941 9.91757 28.5941 12.5133 28.5941C12.5725 28.5941 12.6199 28.5941 12.6792 28.5825H12.7029V15.0465H3.94391ZM22.5879 28.7103C21.3789 28.7103 20.17 28.7103 18.961 28.7103H17.9773C17.9536 28.7103 17.9299 28.7103 17.9062 28.7103L17.7876 28.6987V14.9303H26.76L26.7718 15.0581C26.7718 15.1162 26.7837 15.1627 26.7837 15.2208C26.7837 19.543 26.7837 23.8768 26.7837 28.1991C26.7837 28.5825 26.6651 28.7103 26.3096 28.7103C25.065 28.7103 23.8324 28.7103 22.5879 28.7103ZM17.918 28.5941C17.9536 28.5941 17.9654 28.5941 17.9891 28.5941H18.9729C21.4145 28.5941 23.8679 28.5941 26.3096 28.5941C26.594 28.5941 26.6651 28.5244 26.6651 28.1991C26.6651 23.8768 26.6651 19.543 26.6651 15.2208C26.6651 15.1627 26.6651 15.1162 26.6533 15.0581V15.0465H17.9062V28.5941H17.918ZM16.6142 28.6987H13.9948V8.70255H16.6142V28.6987ZM14.1134 28.5825H16.4957V8.81874H14.1134V28.5825ZM20.6796 13.7916H17.7876V8.70255H28.36C28.9882 8.70255 29.3082 9.02788 29.3082 9.63207C29.3082 10.701 29.3082 11.7699 29.3082 12.8389C29.3082 13.4779 28.9882 13.7916 28.3363 13.7916H20.6796ZM17.9062 13.6754H28.3482C28.929 13.6754 29.2016 13.4082 29.2016 12.8389C29.2016 11.7699 29.2016 10.701 29.2016 9.63207C29.2016 9.0976 28.9171 8.81874 28.3719 8.81874H20.6796H17.9062V13.6754ZM9.89386 13.7916H2.15419C1.54971 13.7916 1.3008 13.5476 1.3008 12.9551C1.3008 11.7816 1.3008 10.6197 1.3008 9.44616C1.3008 8.98141 1.58527 8.70255 2.04751 8.70255C4.97508 8.70255 7.90264 8.70255 10.8302 8.70255H12.6199C12.6436 8.70255 12.6792 8.70255 12.7148 8.70255L12.8214 8.71417V13.7916H9.89386ZM7.25076 8.81874C5.50844 8.81874 3.76613 8.81874 2.03566 8.81874C1.63268 8.81874 1.40747 9.0395 1.40747 9.44616C1.40747 10.6197 1.40747 11.7816 1.40747 12.9551C1.40747 13.4779 1.60898 13.6754 2.14234 13.6754H12.6911V8.81874C12.6555 8.81874 12.6318 8.81874 12.6081 8.81874H10.8184C9.63311 8.81874 8.44786 8.81874 7.25076 8.81874ZM18.1313 7.58714C17.7758 7.58714 17.4083 7.57552 17.0528 7.57552C16.6972 7.5639 16.3298 7.5639 15.9623 7.5639H15.9031V7.50581C15.9031 7.14562 15.9031 6.78544 15.8912 6.42525C15.8794 5.63517 15.8794 4.81022 15.9149 4.00852C15.9742 2.78854 17.0765 1.60341 18.4395 1.31294C19.2692 1.13865 20.1344 1.2897 20.8693 1.75445C21.6041 2.21921 22.1019 2.91634 22.2679 3.74129C22.4575 4.64756 22.2679 5.57707 21.7226 6.29744C21.1893 7.01781 20.3833 7.45933 19.4588 7.54067C19.0203 7.57552 18.5817 7.58714 18.1313 7.58714ZM16.0216 7.43609C16.3653 7.43609 16.7209 7.44771 17.0528 7.44771C17.835 7.47095 18.6528 7.48257 19.4351 7.41286C20.324 7.33152 21.1063 6.90163 21.616 6.21611C22.1375 5.51898 22.3271 4.62432 22.1375 3.7529C21.9715 2.96282 21.4856 2.28892 20.7863 1.8474C20.087 1.40589 19.2573 1.24322 18.4514 1.41751C17.1476 1.69636 16.0809 2.83501 16.0216 3.9969C15.986 4.7986 15.9979 5.62355 15.9979 6.41363C16.0216 6.75058 16.0216 7.08753 16.0216 7.43609ZM12.4066 7.55228C11.9443 7.55228 11.4821 7.54066 11.0198 7.49419C9.71607 7.36638 8.79157 6.5763 8.41229 5.25174C8.04487 3.95043 8.40044 2.81177 9.46717 1.95197C10.368 1.21998 11.5651 1.03408 12.6436 1.42912C13.7341 1.83579 14.4926 2.75368 14.6823 3.88071C14.7297 4.14795 14.7178 4.4268 14.7178 4.69404C14.7178 4.7986 14.7178 4.90318 14.7178 5.00775C14.7178 5.58869 14.7178 6.16964 14.7178 6.75058V7.50581H14.6586C14.2793 7.50581 13.9 7.51743 13.5207 7.51743C13.1414 7.55228 12.774 7.55228 12.4066 7.55228ZM11.5058 1.34779C10.8065 1.34779 10.1072 1.59179 9.53828 2.04493C8.51897 2.86987 8.16339 3.97366 8.51897 5.2285C8.8864 6.49496 9.77534 7.26181 11.0317 7.38962C11.8495 7.47095 12.6673 7.44771 13.5207 7.43609C13.8763 7.42448 14.2319 7.42448 14.5993 7.42448V6.78544C14.5993 6.20449 14.5993 5.62355 14.5993 5.0426C14.5993 4.93803 14.5993 4.83346 14.5993 4.72889C14.6112 4.46166 14.6111 4.19442 14.5637 3.92719C14.386 2.83501 13.6511 1.95197 12.5962 1.55693C12.2407 1.41751 11.8732 1.34779 11.5058 1.34779Z" fill="white"/>
</svg>
