<svg width="16" height="17" viewBox="0 0 16 17" fill="none" xmlns="http://www.w3.org/2000/svg">
<path d="M0.00159712 8.07049C0.00159712 6.43856 -0.00199641 4.80663 0.00159712 3.17471C0.00519065 1.57905 1.04372 0.313396 2.59972 0.0559145C3.08485 -0.0238686 3.59153 0.00514341 4.08744 0.00514341C6.9982 0.0015169 9.90896 0.00514341 12.8161 0.00514341C14.3757 0.00514341 15.6478 1.03144 15.9389 2.5437C15.9856 2.7903 15.9964 3.04778 15.9964 3.30163C16 6.52197 15.9964 9.7423 16 12.9626C16.0036 14.7868 14.6165 16.1721 12.8161 16.1685C9.67179 16.1612 6.52745 16.1576 3.3867 16.1721C2.39129 16.1757 1.52166 15.9146 0.828109 15.1676C0.28908 14.5764 0.00519065 13.8765 0.00519065 13.0751C0.00159712 11.4069 0.00159712 9.73868 0.00159712 8.07049ZM12.0579 6.43131C12.4352 7.41409 12.4819 8.39687 12.1801 9.37966C11.8746 10.3697 11.2997 11.182 10.4336 11.7405C8.90996 12.7197 7.30365 12.8248 5.77281 11.8602C3.75324 10.5873 3.23937 8.69787 3.90776 6.43493C3.13156 6.43493 2.35177 6.43493 1.56478 6.43493C1.56119 6.48933 1.5576 6.52922 1.5576 6.57274C1.5576 8.71238 1.554 10.852 1.56119 12.9917C1.56119 13.9237 2.2224 14.5764 3.15312 14.5764C4.5007 14.5764 5.84827 14.5764 7.19584 14.5764C9.10041 14.5764 11.005 14.5801 12.9096 14.5728C13.5923 14.5728 14.1457 14.1775 14.3506 13.5284C14.426 13.2927 14.4404 13.0315 14.444 12.7813C14.4512 10.7323 14.4476 8.68337 14.4476 6.63439C14.4476 6.56911 14.4476 6.50384 14.4476 6.43131C13.6462 6.43131 12.87 6.43131 12.0579 6.43131ZM7.98642 10.9209C9.50648 10.9463 10.7966 9.66978 10.8181 8.12126C10.8397 6.55824 9.59273 5.27083 8.02954 5.24181C6.50229 5.21643 5.20862 6.4712 5.18706 8.00158C5.16191 9.619 6.3873 10.8955 7.98642 10.9209ZM14.1421 1.88367C13.233 1.88367 12.3418 1.88367 11.4542 1.88367C11.4542 2.79392 11.4542 3.68967 11.4542 4.59267C12.3597 4.59267 13.2473 4.59267 14.1421 4.59267C14.1421 3.68604 14.1421 2.79392 14.1421 1.88367Z" fill="#414141"/>
</svg>
