<svg width="14" height="10" viewBox="0 0 14 10" fill="none" xmlns="http://www.w3.org/2000/svg">
<path d="M0 0.417124C0.121554 0.0941105 0.364661 -0.00661416 0.694593 0.000332371C1.42044 0.0142254 2.14282 0.00380564 2.86867 0.00380564C3.19513 0.00380564 3.37572 0.13579 3.47644 0.44491C3.532 0.6151 3.58757 0.781817 3.63619 0.952007C3.65356 1.018 3.68481 1.04231 3.75427 1.03884C3.8411 1.03189 3.92792 1.03884 4.01475 1.03884C6.81396 1.03884 9.61316 1.03884 12.4124 1.03884C12.7562 1.03884 13.041 1.14651 13.225 1.4591C13.3466 1.66403 13.3535 1.88632 13.3049 2.11555C13.1104 3.00123 12.9194 3.88692 12.7215 4.76913C12.5964 5.33527 12.2144 5.63397 11.6344 5.63397C9.51592 5.63397 7.39741 5.63397 5.27891 5.63397C5.22681 5.63397 5.17472 5.63397 5.10873 5.63397C5.19208 5.90488 5.27196 6.1619 5.35184 6.41545C5.39699 6.5648 5.44908 6.71068 5.49076 6.8635C5.51159 6.93644 5.54632 6.95728 5.61926 6.95728C5.94571 6.95381 6.2687 6.95728 6.59516 6.95728C8.21703 6.95728 9.84238 6.95728 11.4643 6.95728C11.5546 6.95728 11.6483 6.96076 11.7351 6.98507C11.9748 7.05453 12.1241 7.29072 12.0963 7.53384C12.0651 7.79434 11.8741 7.9819 11.6205 8.00274C11.565 8.00621 11.5094 8.00621 11.4504 8.00621C9.38395 8.00621 7.31754 8.00621 5.25112 8.00621C4.86215 8.00621 4.70239 7.89159 4.58779 7.51995C3.92792 5.41168 3.26459 3.30341 2.6082 1.19514C2.57694 1.09094 2.53179 1.06315 2.4276 1.06315C1.84762 1.0701 1.26416 1.0562 0.684174 1.0701C0.354242 1.07704 0.118081 0.969373 0 0.653306C0 0.573421 0 0.497009 0 0.417124ZM3.97654 2.1086C4.03906 2.29963 4.10504 2.48024 4.15367 2.66085C4.18492 2.77547 4.23702 2.81368 4.35857 2.81368C6.87647 2.8102 9.39437 2.8102 11.9123 2.8102C11.947 2.8102 11.9817 2.81715 12.0165 2.80673C12.0408 2.79978 12.072 2.77894 12.079 2.7581C12.1276 2.54624 12.1727 2.33089 12.2214 2.1086C9.46383 2.1086 6.7306 2.1086 3.97654 2.1086ZM4.55653 3.86955C4.62252 4.06753 4.6885 4.25161 4.7406 4.43917C4.77185 4.55031 4.82395 4.58504 4.93855 4.58504C7.13694 4.58157 9.3388 4.58157 11.5372 4.58157C11.5858 4.58157 11.631 4.58157 11.6865 4.58157C11.7386 4.34191 11.7872 4.11268 11.8393 3.87302C9.40131 3.86955 6.99108 3.86955 4.55653 3.86955Z" fill="white"/>
<path d="M9.73831 9.25327C9.73483 8.83647 10.0752 8.49609 10.485 8.49609C10.8948 8.49609 11.2282 8.833 11.2317 9.24285C11.2352 9.65964 10.8948 10 10.485 10C10.0752 9.99654 9.73831 9.66311 9.73831 9.25327Z" fill="white"/>
<path d="M5.08105 9.24976C5.08105 8.83991 5.42835 8.49259 5.83816 8.49606C6.2445 8.49953 6.58137 8.83991 6.58485 9.24628C6.58485 9.65613 6.23408 10.0035 5.82774 9.99998C5.42141 9.99303 5.08453 9.65613 5.08105 9.24976Z" fill="white"/>
</svg>
