<svg width="318" height="41" viewBox="0 0 318 41" fill="none" xmlns="http://www.w3.org/2000/svg">
<path d="M7.01182 33.9581C6.89963 34.014 6.78744 34.1259 6.78744 34.1818V34.2378C6.84354 34.2937 6.95572 34.3497 7.12401 34.3497H23.7841V37.2028H2.41207C1.12189 37.2028 0.392662 36.8672 0.112189 36.2518C0.0560946 36.1399 0 35.972 0 35.8602C0 35.6364 0.0560946 35.4126 0.168284 35.1888C0.392662 34.7972 0.841418 34.4056 1.40236 34.014L33.0397 14.5455C33.7128 14.0979 34.4421 13.8741 35.3957 13.8741C36.8541 13.8741 37.5834 14.7693 37.5834 16.5595V29.0909H31.9739V19.1329C31.9739 18.9651 31.9178 18.9091 31.8056 18.8532C31.7495 18.8532 31.7495 18.8532 31.6934 18.8532C31.6373 18.8532 31.5812 18.8532 31.469 18.9091L7.01182 33.9581ZM37.5834 31.6084V34.4616H43.1928V37.3147H37.5834V40.1119H31.9178V37.3147H26.3083V34.4616H31.9739V31.6084H37.5834Z" fill="#4EA534"/>
<path d="M89.9757 13.8741V16.6713H75.5033C74.3253 16.6713 73.3717 17.063 72.7546 17.8462C72.1937 18.5734 71.8571 19.5804 71.8571 20.9231V33.007C71.8571 35.0769 71.2401 36.7553 70.006 37.986C68.7158 39.3287 66.8086 40 64.4527 40H48.3535V37.2028H62.6576C63.8356 37.2028 64.7892 36.8112 65.4063 35.972C66.0233 35.2448 66.3038 34.2378 66.3038 32.9511V20.9231C66.3038 18.8532 66.9208 17.1748 68.1549 15.8881C69.4451 14.5455 71.3523 13.8741 73.7082 13.8741H89.9757ZM122.791 37.2588C123.969 37.2588 124.923 36.8672 125.54 36.0839C126.157 35.3567 126.437 34.2937 126.437 33.007V28.4196H102.709C101.531 28.4196 100.634 28.8112 99.9605 29.5944C99.3996 30.3217 99.063 31.3846 99.063 32.7832C99.063 34.1818 99.3435 35.2448 99.9605 36.028C100.634 36.8112 101.531 37.2588 102.709 37.2588H122.791ZM126.437 20.9231C126.437 19.6364 126.157 18.6294 125.54 17.8462C124.923 17.063 123.969 16.6713 122.791 16.6713H96.0339V13.8741H124.642C127.054 13.8741 128.905 14.5455 130.195 15.8881C131.43 17.1748 132.047 18.8532 132.047 20.9231V33.007C132.047 35.021 131.43 36.6434 130.195 37.9301C128.849 39.3287 126.998 40.056 124.642 40.056H100.858C98.4459 40.056 96.5948 39.3846 95.3046 38.042C94.0706 36.7553 93.4535 35.021 93.4535 32.8392C93.4535 30.6574 94.0706 28.9231 95.3046 27.6364C96.5948 26.2937 98.502 25.6224 100.858 25.6224H126.437V20.9231ZM136.029 40V20.9231C136.029 18.8532 136.646 17.1748 137.88 15.8881C139.171 14.5455 141.078 13.8741 143.434 13.8741H174.622V16.6713H145.285C144.107 16.6713 143.153 17.063 142.536 17.8462C141.919 18.5734 141.639 19.5804 141.639 20.9231V25.1748H170.92V27.972H141.639V40.056H136.029V40ZM187.524 16.6713C186.346 16.6713 185.392 17.063 184.775 17.8462C184.158 18.6294 183.878 19.6364 183.878 20.9231V25.5105H207.606C208.784 25.5105 209.681 25.1189 210.355 24.3357C210.915 23.6084 211.252 22.5455 211.252 21.1469C211.252 19.7483 210.972 18.6853 210.355 17.9021C209.738 17.1189 208.784 16.7273 207.606 16.7273H187.524V16.6713ZM183.878 33.007C183.878 34.2937 184.158 35.3007 184.775 36.028C185.392 36.8112 186.346 37.2588 187.524 37.2588H214.281V40.056H185.673C183.261 40.056 181.41 39.3846 180.12 38.042C178.886 36.7553 178.268 35.0769 178.268 33.007V20.9231C178.268 18.9091 178.886 17.2867 180.12 16C181.466 14.6014 183.317 13.8741 185.673 13.8741H209.457C211.869 13.8741 213.72 14.5455 215.01 15.8881C216.244 17.1748 216.862 18.9091 216.862 21.0909C216.862 23.2727 216.244 25.007 215.01 26.2937C213.72 27.6364 211.869 28.3077 209.457 28.3077H183.878V33.007ZM244.011 16.6713V40.056H238.402V16.6713H220.395V13.8741H261.962V16.6713H244.011ZM304.257 13.8741V33.007C304.257 35.0769 303.64 36.7553 302.406 38.042C301.116 39.3846 299.264 40.056 296.852 40.056H268.244V37.2588H295.001C296.179 37.2588 297.133 36.8672 297.75 36.028C298.367 35.3007 298.647 34.2937 298.647 33.007V28.3077H273.068C270.656 28.3077 268.805 27.6364 267.515 26.2937C266.281 25.063 265.664 23.3287 265.664 21.0909V13.8741H271.273V21.0909C271.273 22.4895 271.554 23.5525 272.171 24.2797C272.788 25.063 273.741 25.4546 274.919 25.4546H298.647V13.8741H304.257Z" fill="#414141"/>
<path d="M305.435 0.671329H303.079V0H308.632V0.671329H306.276V8H305.491V0.671329H305.435ZM309.754 0H310.988L313.961 7.04895L316.878 0H318V8.05594H317.215V0.783217L314.298 8.05594H313.569L310.54 0.783217V8.05594H309.754V0Z" fill="white"/>
</svg>
