<svg width="10" height="18" viewBox="0 0 10 18" fill="none" xmlns="http://www.w3.org/2000/svg">
<path d="M6.55654 8.98195C6.55654 12.0385 6.55654 15.0018 6.55654 18C5.06989 18 3.64676 18 2.1474 18C2.1474 15.0251 2.1474 12.0502 2.1474 9.02862C1.41042 9.02862 0.724269 9.02862 0 9.02862C0 7.97865 0 6.99868 0 5.94872C0.533672 5.94872 1.05464 5.92538 1.5756 5.94872C1.98221 5.97205 2.1474 5.83205 2.12198 5.44707C2.09657 4.78209 2.10928 4.12877 2.10928 3.4638C2.13469 1.53886 3.24015 0.255565 5.33672 0.0689041C6.83609 -0.0710915 8.37357 0.0455715 9.93647 0.0455715C9.93647 1.00221 9.93647 1.99384 9.93647 3.09047C9.30114 3.09047 8.65311 3.09047 8.00508 3.09047C6.87421 3.10214 6.56925 3.38213 6.56925 4.40877C6.56925 4.88708 6.56925 5.37707 6.56925 5.92538C7.73825 5.92538 8.85642 5.92538 10 5.92538C9.84752 6.97535 9.70775 7.95532 9.56798 8.97029C8.58958 8.98195 7.62389 8.98195 6.55654 8.98195Z" fill="#414141"/>
</svg>
